<svg width="875" height="875" viewBox="0 0 875 875" fill="none" xmlns="http://www.w3.org/2000/svg">
<g filter="url(#filter0_d)">
<path fill-rule="evenodd" clip-rule="evenodd" d="M821.98 295.182C821.98 286.16 821.984 277.137 821.928 268.114C821.882 260.513 821.794 252.914 821.585 245.317C821.135 228.758 820.149 212.058 817.177 195.684C814.163 179.073 809.241 163.614 801.484 148.522C793.859 133.689 783.898 120.115 772.014 108.347C760.132 96.5787 746.429 86.7154 731.453 79.1643C716.207 71.4767 700.588 66.6013 683.807 63.6157C667.28 60.6753 650.421 59.7004 633.71 59.2531C626.037 59.0474 618.365 58.9607 610.69 58.9137C601.579 58.8583 592.468 58.8629 583.357 58.8629L477.572 58.4875H398.452L294.538 58.8629C285.41 58.8629 276.281 58.8583 267.153 58.9137C259.462 58.9607 251.776 59.0474 244.088 59.2531C227.338 59.7004 210.441 60.6762 193.875 63.6203C177.071 66.6049 161.43 71.4785 146.162 79.1606C131.155 86.7126 117.422 96.5769 105.515 108.347C93.6101 120.114 83.6308 133.685 75.9916 148.516C68.2137 163.615 63.2822 179.084 60.2608 195.703C57.2859 212.071 56.3001 228.766 55.8468 245.317C55.6402 252.915 55.5508 260.514 55.5043 268.114C55.4484 277.138 54.9802 288.347 54.9802 297.37L54.983 398.909L54.9802 478.146L55.4531 581.842C55.4531 590.878 55.4494 599.913 55.5043 608.948C55.5508 616.559 55.6402 624.168 55.8477 631.776C56.3001 648.356 57.2877 665.081 60.2654 681.477C63.2859 698.109 68.2165 713.59 75.9879 728.702C83.628 743.557 93.6092 757.148 105.515 768.933C117.421 780.717 131.15 790.594 146.155 798.156C161.431 805.853 177.08 810.735 193.895 813.725C210.453 816.67 227.345 817.646 244.088 818.094C251.776 818.299 259.463 818.387 267.154 818.433C276.282 818.488 285.41 818.485 294.538 818.485L399.391 818.488H478.707L583.357 818.484C592.468 818.484 601.579 818.488 610.69 818.433C618.365 818.387 626.037 818.299 633.71 818.094C650.428 817.645 667.292 816.668 683.826 813.721C700.598 810.732 716.208 805.852 731.447 798.159C746.426 790.597 760.131 780.719 772.014 768.933C783.897 757.15 793.856 743.56 801.482 728.708C809.243 713.589 814.165 698.101 817.181 681.457C820.15 665.068 821.135 648.35 821.586 631.776C821.794 624.167 821.882 616.558 821.928 608.948C821.985 599.913 821.98 590.878 821.98 581.842C821.98 581.842 821.975 479.977 821.975 478.146V398.826C821.975 397.474 821.98 295.182 821.98 295.182" fill="url(#paint0_linear)"/>
</g>
<g clip-path="url(#clip0)">
<g filter="url(#filter1_d)">
<path d="M412.384 242.536L230.013 607.348C220.717 626.01 234.258 647.969 255.129 647.969H619.871C640.743 647.969 654.318 626.01 644.987 607.348L462.616 242.536C452.268 221.875 422.732 221.875 412.384 242.536V242.536Z" fill="url(#paint1_linear)"/>
</g>
<g opacity="0.2">
<path opacity="0.2" d="M437.5 237.555C444.27 237.555 450.163 241.168 453.18 247.236L635.551 612.049C638.322 617.591 638.042 623.835 634.78 629.097C631.517 634.394 626.08 637.41 619.871 637.41H255.129C248.92 637.41 243.483 634.394 240.221 629.097C236.959 623.8 236.678 617.591 239.449 612.049L421.82 247.236C424.837 241.168 430.73 237.555 437.5 237.555V237.555ZM437.5 227.031C427.538 227.031 417.576 232.188 412.384 242.536L230.013 607.348C220.717 626.01 234.258 647.969 255.129 647.969H619.871C640.743 647.969 654.318 626.01 644.987 607.348L462.616 242.536C457.425 232.188 447.462 227.031 437.5 227.031V227.031Z" fill="#424242"/>
</g>
<g opacity="0.2">
<path opacity="0.2" d="M437.5 332.266C453.741 332.266 466.58 345.104 465.492 360.258L453.495 528.738C452.934 536.596 445.954 542.734 437.5 542.734C429.046 542.734 422.065 536.596 421.504 528.738L409.507 360.258C408.42 345.104 421.259 332.266 437.5 332.266ZM437.5 321.742C426.485 321.742 415.962 326.232 408.631 334.09C401.72 341.526 398.282 351.067 398.984 360.995L410.981 529.475C411.963 542.805 423.609 553.258 437.5 553.258C451.391 553.258 463.037 542.805 463.984 529.475L475.981 360.995C476.682 351.067 473.28 341.526 466.334 334.09C459.038 326.232 448.514 321.742 437.5 321.742V321.742Z" fill="#424242"/>
<path opacity="0.2" d="M437.5 556.766C449.111 556.766 458.547 566.202 458.547 577.812C458.547 589.423 449.111 598.859 437.5 598.859C425.889 598.859 416.453 589.423 416.453 577.812C416.453 566.202 425.889 556.766 437.5 556.766ZM437.5 546.242C420.101 546.242 405.93 560.414 405.93 577.812C405.93 595.211 420.101 609.383 437.5 609.383C454.899 609.383 469.07 595.211 469.07 577.812C469.07 560.414 454.899 546.242 437.5 546.242Z" fill="#424242"/>
</g>
<path d="M437.5 332.266C453.741 332.266 466.58 345.104 465.492 360.258L453.496 528.738C452.934 536.596 445.954 542.734 437.5 542.734C429.046 542.734 422.066 536.596 421.504 528.738L409.508 360.258C408.42 345.104 421.259 332.266 437.5 332.266Z" fill="url(#paint2_linear)"/>
<path d="M437.5 598.859C449.124 598.859 458.547 589.436 458.547 577.812C458.547 566.189 449.124 556.766 437.5 556.766C425.876 556.766 416.453 566.189 416.453 577.812C416.453 589.436 425.876 598.859 437.5 598.859Z" fill="url(#paint3_linear)"/>
</g>
<defs>
<filter id="filter0_d" x="44.9802" y="58.4875" width="787" height="780" filterUnits="userSpaceOnUse" color-interpolation-filters="sRGB">
<feFlood flood-opacity="0" result="BackgroundImageFix"/>
<feColorMatrix in="SourceAlpha" type="matrix" values="0 0 0 0 0 0 0 0 0 0 0 0 0 0 0 0 0 0 127 0"/>
<feOffset dy="10"/>
<feGaussianBlur stdDeviation="5"/>
<feColorMatrix type="matrix" values="0 0 0 0 0 0 0 0 0 0 0 0 0 0 0 0 0 0 0.3 0"/>
<feBlend mode="normal" in2="BackgroundImageFix" result="effect1_dropShadow"/>
<feBlend mode="normal" in="SourceGraphic" in2="effect1_dropShadow" result="shape"/>
</filter>
<filter id="filter1_d" x="217.029" y="227.04" width="440.957" height="440.929" filterUnits="userSpaceOnUse" color-interpolation-filters="sRGB">
<feFlood flood-opacity="0" result="BackgroundImageFix"/>
<feColorMatrix in="SourceAlpha" type="matrix" values="0 0 0 0 0 0 0 0 0 0 0 0 0 0 0 0 0 0 127 0"/>
<feOffset dy="10"/>
<feGaussianBlur stdDeviation="5"/>
<feColorMatrix type="matrix" values="0 0 0 0 0 0 0 0 0 0 0 0 0 0 0 0 0 0 0.3 0"/>
<feBlend mode="normal" in2="BackgroundImageFix" result="effect1_dropShadow"/>
<feBlend mode="normal" in="SourceGraphic" in2="effect1_dropShadow" result="shape"/>
</filter>
<linearGradient id="paint0_linear" x1="478.5" y1="-390.5" x2="478.5" y2="802" gradientUnits="userSpaceOnUse">
<stop stop-color="#FEE85B"/>
<stop offset="1" stop-color="#FF9900"/>
</linearGradient>
<linearGradient id="paint1_linear" x1="437.5" y1="342.789" x2="437.5" y2="671.962" gradientUnits="userSpaceOnUse">
<stop stop-color="#FFEB3B"/>
<stop offset="0.419" stop-color="#FFDC28"/>
<stop offset="0.9954" stop-color="#FFC107"/>
</linearGradient>
<linearGradient id="paint2_linear" x1="437.5" y1="326.127" x2="437.5" y2="602.157" gradientUnits="userSpaceOnUse">
<stop stop-color="#424242"/>
<stop offset="1" stop-color="#212121"/>
</linearGradient>
<linearGradient id="paint3_linear" x1="437.5" y1="326.127" x2="437.5" y2="602.157" gradientUnits="userSpaceOnUse">
<stop stop-color="#424242"/>
<stop offset="1" stop-color="#212121"/>
</linearGradient>
<clipPath id="clip0">
<rect width="449" height="449" fill="white" transform="translate(213 213)"/>
</clipPath>
</defs>
</svg>
