<svg width="875" height="875" viewBox="0 0 875 875" fill="none" xmlns="http://www.w3.org/2000/svg">
<g filter="url(#filter0_d)">
<path fill-rule="evenodd" clip-rule="evenodd" d="M821.98 295.182C821.98 286.16 821.984 277.137 821.928 268.114C821.882 260.513 821.794 252.914 821.585 245.317C821.135 228.758 820.149 212.058 817.177 195.684C814.163 179.073 809.241 163.614 801.484 148.522C793.859 133.689 783.898 120.115 772.014 108.347C760.132 96.5787 746.429 86.7154 731.453 79.1643C716.207 71.4767 700.588 66.6013 683.807 63.6157C667.28 60.6753 650.421 59.7004 633.71 59.2531C626.037 59.0474 618.365 58.9607 610.69 58.9137C601.579 58.8583 592.468 58.8629 583.357 58.8629L477.572 58.4875H398.452L294.538 58.8629C285.41 58.8629 276.281 58.8583 267.153 58.9137C259.462 58.9607 251.776 59.0474 244.088 59.2531C227.338 59.7004 210.441 60.6762 193.875 63.6203C177.071 66.6049 161.43 71.4785 146.162 79.1606C131.155 86.7126 117.422 96.5769 105.515 108.347C93.6101 120.114 83.6308 133.685 75.9916 148.516C68.2137 163.615 63.2822 179.084 60.2608 195.703C57.2859 212.071 56.3001 228.766 55.8468 245.317C55.6402 252.915 55.5508 260.514 55.5043 268.114C55.4484 277.138 54.9802 288.347 54.9802 297.37L54.983 398.909L54.9802 478.146L55.4531 581.842C55.4531 590.878 55.4494 599.913 55.5043 608.948C55.5508 616.559 55.6402 624.168 55.8477 631.776C56.3001 648.356 57.2877 665.081 60.2654 681.477C63.2859 698.109 68.2165 713.59 75.9879 728.702C83.628 743.557 93.6092 757.148 105.515 768.933C117.421 780.717 131.15 790.594 146.155 798.156C161.431 805.853 177.08 810.735 193.895 813.725C210.453 816.67 227.345 817.646 244.088 818.094C251.776 818.299 259.463 818.387 267.154 818.433C276.282 818.488 285.41 818.485 294.538 818.485L399.391 818.488H478.707L583.357 818.484C592.468 818.484 601.579 818.488 610.69 818.433C618.365 818.387 626.037 818.299 633.71 818.094C650.428 817.645 667.292 816.668 683.826 813.721C700.598 810.732 716.208 805.852 731.447 798.159C746.426 790.597 760.131 780.719 772.014 768.933C783.897 757.15 793.856 743.56 801.482 728.708C809.243 713.589 814.165 698.101 817.181 681.457C820.15 665.068 821.135 648.35 821.586 631.776C821.794 624.167 821.882 616.558 821.928 608.948C821.985 599.913 821.98 590.878 821.98 581.842C821.98 581.842 821.975 479.977 821.975 478.146V398.826C821.975 397.474 821.98 295.182 821.98 295.182" fill="url(#paint0_linear)"/>
</g>
<g filter="url(#filter1_d)">
<g clip-path="url(#clip0)">
<path d="M437.5 603.656C529.266 603.656 603.656 529.266 603.656 437.5C603.656 345.734 529.266 271.344 437.5 271.344C345.734 271.344 271.344 345.734 271.344 437.5C271.344 529.266 345.734 603.656 437.5 603.656Z" fill="white"/>
<path d="M437.5 245.781C331.607 245.781 245.781 331.607 245.781 437.5C245.781 543.393 331.607 629.219 437.5 629.219C543.393 629.219 629.219 543.393 629.219 437.5C629.219 331.607 543.393 245.781 437.5 245.781ZM590.875 437.5C590.875 472.904 578.797 505.496 558.57 531.474L343.526 316.43C369.504 296.203 402.096 284.125 437.5 284.125C522.08 284.125 590.875 352.92 590.875 437.5ZM284.125 437.5C284.125 402.096 296.203 369.504 316.43 343.526L531.474 558.57C505.496 578.797 472.904 590.875 437.5 590.875C352.92 590.875 284.125 522.08 284.125 437.5Z" fill="url(#paint1_linear)"/>
<g opacity="0.2">
<g opacity="0.2" filter="url(#filter2_d)">
<path d="M437.5 255.367C537.929 255.367 619.633 337.071 619.633 437.5C619.633 537.929 537.929 619.633 437.5 619.633C337.071 619.633 255.367 537.929 255.367 437.5C255.367 337.071 337.071 255.367 437.5 255.367ZM558.57 541.06C558.762 541.06 558.954 541.06 559.178 541.028C561.925 540.868 564.45 539.526 566.143 537.354C588.606 508.5 600.461 473.959 600.461 437.5C600.461 347.648 527.352 274.539 437.5 274.539C401.041 274.539 366.5 286.394 337.646 308.857C335.474 310.55 334.132 313.075 333.972 315.823C333.812 318.57 334.803 321.255 336.752 323.204L551.796 538.248C553.618 540.07 556.046 541.06 558.57 541.06V541.06ZM437.5 600.461C473.959 600.461 508.5 588.606 537.354 566.143C539.526 564.45 540.868 561.925 541.028 559.178C541.188 556.43 540.197 553.745 538.248 551.796L323.204 336.752C321.414 334.962 318.954 333.94 316.43 333.94C316.238 333.94 316.046 333.94 315.823 333.972C313.075 334.132 310.55 335.474 308.857 337.646C286.394 366.5 274.539 401.041 274.539 437.5C274.539 527.352 347.648 600.461 437.5 600.461ZM437.5 245.781C331.607 245.781 245.781 331.607 245.781 437.5C245.781 543.393 331.607 629.219 437.5 629.219C543.393 629.219 629.219 543.393 629.219 437.5C629.219 331.607 543.393 245.781 437.5 245.781ZM558.57 531.474L343.526 316.43C369.504 296.203 402.096 284.125 437.5 284.125C522.08 284.125 590.875 352.92 590.875 437.5C590.875 472.904 578.797 505.496 558.57 531.474ZM437.5 590.875C352.92 590.875 284.125 522.08 284.125 437.5C284.125 402.096 296.203 369.504 316.43 343.526L531.474 558.57C505.496 578.797 472.904 590.875 437.5 590.875Z" fill="#424242"/>
</g>
</g>
</g>
</g>
<defs>
<filter id="filter0_d" x="44.9802" y="58.4875" width="787" height="780" filterUnits="userSpaceOnUse" color-interpolation-filters="sRGB">
<feFlood flood-opacity="0" result="BackgroundImageFix"/>
<feColorMatrix in="SourceAlpha" type="matrix" values="0 0 0 0 0 0 0 0 0 0 0 0 0 0 0 0 0 0 127 0"/>
<feOffset dy="10"/>
<feGaussianBlur stdDeviation="5"/>
<feColorMatrix type="matrix" values="0 0 0 0 0 0 0 0 0 0 0 0 0 0 0 0 0 0 0.3 0"/>
<feBlend mode="normal" in2="BackgroundImageFix" result="effect1_dropShadow"/>
<feBlend mode="normal" in="SourceGraphic" in2="effect1_dropShadow" result="shape"/>
</filter>
<filter id="filter1_d" x="204" y="214" width="468" height="468" filterUnits="userSpaceOnUse" color-interpolation-filters="sRGB">
<feFlood flood-opacity="0" result="BackgroundImageFix"/>
<feColorMatrix in="SourceAlpha" type="matrix" values="0 0 0 0 0 0 0 0 0 0 0 0 0 0 0 0 0 0 127 0"/>
<feOffset dy="10"/>
<feGaussianBlur stdDeviation="5"/>
<feColorMatrix type="matrix" values="0 0 0 0 0 0 0 0 0 0 0 0 0 0 0 0 0 0 0.3 0"/>
<feBlend mode="normal" in2="BackgroundImageFix" result="effect1_dropShadow"/>
<feBlend mode="normal" in="SourceGraphic" in2="effect1_dropShadow" result="shape"/>
</filter>
<filter id="filter2_d" x="235.781" y="245.781" width="403.438" height="403.438" filterUnits="userSpaceOnUse" color-interpolation-filters="sRGB">
<feFlood flood-opacity="0" result="BackgroundImageFix"/>
<feColorMatrix in="SourceAlpha" type="matrix" values="0 0 0 0 0 0 0 0 0 0 0 0 0 0 0 0 0 0 127 0"/>
<feOffset dy="10"/>
<feGaussianBlur stdDeviation="5"/>
<feColorMatrix type="matrix" values="0 0 0 0 0 0 0 0 0 0 0 0 0 0 0 0 0 0 0.3 0"/>
<feBlend mode="normal" in2="BackgroundImageFix" result="effect1_dropShadow"/>
<feBlend mode="normal" in="SourceGraphic" in2="effect1_dropShadow" result="shape"/>
</filter>
<linearGradient id="paint0_linear" x1="478.5" y1="-390.5" x2="469.5" y2="1287.5" gradientUnits="userSpaceOnUse">
<stop offset="0.480222" stop-color="#B00100"/>
<stop offset="1" stop-color="#540100"/>
</linearGradient>
<linearGradient id="paint1_linear" x1="437.5" y1="248.977" x2="437.5" y2="627.27" gradientUnits="userSpaceOnUse">
<stop stop-color="#FF5252"/>
<stop offset="0.324" stop-color="#F33B3B"/>
<stop offset="1" stop-color="#D50000"/>
</linearGradient>
<clipPath id="clip0">
<rect width="409" height="409" fill="white" transform="translate(233 233)"/>
</clipPath>
</defs>
</svg>
